<mxfile host="app.diagrams.net" agent="Mozilla/5.0 (Windows NT 10.0; Win64; x64) AppleWebKit/537.36 (KHTML, like Gecko) Chrome/130.0.0.0 Safari/537.36" version="24.8.1">
  <diagram name="Page-1" id="UcZs8nigwEiz8f8sDLPM">
    <mxGraphModel dx="1824" dy="422" grid="1" gridSize="10" guides="1" tooltips="1" connect="1" arrows="1" fold="1" page="1" pageScale="1" pageWidth="850" pageHeight="1100" math="0" shadow="0">
      <root>
        <mxCell id="0" />
        <mxCell id="1" parent="0" />
        <mxCell id="XL-E2fBatTasfV7Rm5Hk-4" value="&lt;b&gt;&lt;u&gt;&lt;font style=&quot;font-size: 24px;&quot;&gt;E-Voting System&lt;/font&gt;&lt;/u&gt;&lt;/b&gt;" style="text;html=1;align=center;verticalAlign=middle;whiteSpace=wrap;rounded=0;" vertex="1" parent="1">
          <mxGeometry x="-565" y="164" width="280" height="51" as="geometry" />
        </mxCell>
        <mxCell id="XL-E2fBatTasfV7Rm5Hk-5" value="&lt;font style=&quot;font-size: 24px;&quot;&gt;&lt;b&gt;Meenakshi Bharadwaj&lt;/b&gt;&lt;/font&gt;&lt;div&gt;&lt;font style=&quot;font-size: 24px;&quot;&gt;&lt;b&gt;MCA-III-B&lt;/b&gt;&lt;/font&gt;&lt;/div&gt;&lt;div&gt;&lt;font style=&quot;font-size: 24px;&quot;&gt;&lt;b&gt;2300290140102&lt;/b&gt;&lt;/font&gt;&lt;/div&gt;&lt;div&gt;&lt;font style=&quot;font-size: 24px;&quot;&gt;&lt;b&gt;&lt;u&gt;SE Practical 07&lt;/u&gt;&lt;/b&gt;&lt;/font&gt;&lt;/div&gt;" style="text;html=1;align=center;verticalAlign=middle;whiteSpace=wrap;rounded=0;" vertex="1" parent="1">
          <mxGeometry x="-825" width="800" height="130" as="geometry" />
        </mxCell>
        <mxCell id="XL-E2fBatTasfV7Rm5Hk-6" value="&lt;span style=&quot;color: rgb(101, 101, 101); font-family: &amp;quot;Century Gothic&amp;quot;, Arial, Helvetica, sans-serif; font-size: 15px; font-style: normal; font-variant-ligatures: normal; font-variant-caps: normal; letter-spacing: normal; orphans: 2; text-indent: 0px; text-transform: none; widows: 2; word-spacing: 0px; -webkit-text-stroke-width: 0px; white-space: normal; background-color: rgb(255, 255, 255); text-decoration-thickness: initial; text-decoration-style: initial; text-decoration-color: initial; float: none; display: inline !important;&quot;&gt;&lt;u&gt;Practical 07:&lt;/u&gt; Draw the sequence diagram for any two scenarios&lt;/span&gt;" style="text;whiteSpace=wrap;html=1;align=center;fontStyle=1" vertex="1" parent="1">
          <mxGeometry x="-712" y="130" width="575" height="40" as="geometry" />
        </mxCell>
        <mxCell id="XL-E2fBatTasfV7Rm5Hk-7" value="&lt;font style=&quot;font-size: 18px;&quot;&gt;&lt;b&gt;&lt;u&gt;Sequence Diagram for Administrator&lt;/u&gt;&lt;/b&gt;&lt;/font&gt;&lt;div&gt;&lt;font style=&quot;font-size: 18px;&quot;&gt;&lt;b&gt;&lt;u&gt;(Admin)&lt;/u&gt;&lt;/b&gt;&lt;/font&gt;&lt;/div&gt;" style="text;html=1;align=center;verticalAlign=middle;whiteSpace=wrap;rounded=0;" vertex="1" parent="1">
          <mxGeometry x="-850" y="240" width="350" height="30" as="geometry" />
        </mxCell>
        <mxCell id="XL-E2fBatTasfV7Rm5Hk-8" value="&lt;font style=&quot;font-size: 18px;&quot;&gt;&lt;b&gt;&lt;u&gt;Sequence Diagram for User (Voter)&lt;/u&gt;&lt;/b&gt;&lt;/font&gt;" style="text;html=1;align=center;verticalAlign=middle;whiteSpace=wrap;rounded=0;" vertex="1" parent="1">
          <mxGeometry x="-301" y="240" width="264" height="30" as="geometry" />
        </mxCell>
        <mxCell id="XL-E2fBatTasfV7Rm5Hk-20" value="Edit Login and Password()" style="html=1;verticalAlign=bottom;endArrow=block;curved=0;rounded=0;entryX=0;entryY=0;entryDx=0;entryDy=5;" edge="1" target="XL-E2fBatTasfV7Rm5Hk-19" parent="1" source="XL-E2fBatTasfV7Rm5Hk-25">
          <mxGeometry relative="1" as="geometry">
            <mxPoint x="-720" y="375" as="sourcePoint" />
          </mxGeometry>
        </mxCell>
        <mxCell id="XL-E2fBatTasfV7Rm5Hk-21" value="Check Validity()" style="html=1;verticalAlign=bottom;endArrow=open;dashed=1;endSize=8;curved=0;rounded=0;" edge="1" source="XL-E2fBatTasfV7Rm5Hk-26" parent="1">
          <mxGeometry relative="1" as="geometry">
            <mxPoint x="-770.5" y="407" as="targetPoint" />
            <mxPoint x="-610" y="407" as="sourcePoint" />
            <Array as="points">
              <mxPoint x="-680" y="407" />
            </Array>
          </mxGeometry>
        </mxCell>
        <mxCell id="XL-E2fBatTasfV7Rm5Hk-25" value="User1 : Voter" style="shape=umlLifeline;perimeter=lifelinePerimeter;whiteSpace=wrap;html=1;container=1;dropTarget=0;collapsible=0;recursiveResize=0;outlineConnect=0;portConstraint=eastwest;newEdgeStyle={&quot;curved&quot;:0,&quot;rounded&quot;:0};" vertex="1" parent="1">
          <mxGeometry x="-820" y="310" width="100" height="370" as="geometry" />
        </mxCell>
        <mxCell id="XL-E2fBatTasfV7Rm5Hk-26" value="Voting System" style="shape=umlLifeline;perimeter=lifelinePerimeter;whiteSpace=wrap;html=1;container=1;dropTarget=0;collapsible=0;recursiveResize=0;outlineConnect=0;portConstraint=eastwest;newEdgeStyle={&quot;curved&quot;:0,&quot;rounded&quot;:0};" vertex="1" parent="1">
          <mxGeometry x="-600" y="310" width="100" height="370" as="geometry" />
        </mxCell>
        <mxCell id="XL-E2fBatTasfV7Rm5Hk-24" value="" style="html=1;points=[[0,0,0,0,5],[0,1,0,0,-5],[1,0,0,0,5],[1,1,0,0,-5]];perimeter=orthogonalPerimeter;outlineConnect=0;targetShapes=umlLifeline;portConstraint=eastwest;newEdgeStyle={&quot;curved&quot;:0,&quot;rounded&quot;:0};" vertex="1" parent="XL-E2fBatTasfV7Rm5Hk-26">
          <mxGeometry x="45" y="179" width="10" height="50" as="geometry" />
        </mxCell>
        <mxCell id="XL-E2fBatTasfV7Rm5Hk-19" value="" style="html=1;points=[[0,0,0,0,5],[0,1,0,0,-5],[1,0,0,0,5],[1,1,0,0,-5]];perimeter=orthogonalPerimeter;outlineConnect=0;targetShapes=umlLifeline;portConstraint=eastwest;newEdgeStyle={&quot;curved&quot;:0,&quot;rounded&quot;:0};" vertex="1" parent="XL-E2fBatTasfV7Rm5Hk-26">
          <mxGeometry x="45" y="60" width="10" height="80" as="geometry" />
        </mxCell>
        <mxCell id="XL-E2fBatTasfV7Rm5Hk-22" value="" style="html=1;points=[[0,0,0,0,5],[0,1,0,0,-5],[1,0,0,0,5],[1,1,0,0,-5]];perimeter=orthogonalPerimeter;outlineConnect=0;targetShapes=umlLifeline;portConstraint=eastwest;newEdgeStyle={&quot;curved&quot;:0,&quot;rounded&quot;:0};" vertex="1" parent="XL-E2fBatTasfV7Rm5Hk-26">
          <mxGeometry x="45" y="268" width="10" height="72" as="geometry" />
        </mxCell>
        <mxCell id="XL-E2fBatTasfV7Rm5Hk-23" value="Save Data()" style="html=1;align=left;spacingLeft=2;endArrow=block;rounded=0;edgeStyle=orthogonalEdgeStyle;curved=0;rounded=0;" edge="1" parent="XL-E2fBatTasfV7Rm5Hk-26">
          <mxGeometry relative="1" as="geometry">
            <mxPoint x="50" y="269" as="sourcePoint" />
            <Array as="points">
              <mxPoint x="50" y="249" />
              <mxPoint x="80" y="249" />
              <mxPoint x="80" y="299" />
            </Array>
            <mxPoint x="55" y="299" as="targetPoint" />
          </mxGeometry>
        </mxCell>
        <mxCell id="XL-E2fBatTasfV7Rm5Hk-28" value="Edit Login and Password()" style="html=1;verticalAlign=bottom;endArrow=block;curved=0;rounded=0;entryX=0;entryY=0;entryDx=0;entryDy=5;" edge="1" parent="1">
          <mxGeometry relative="1" as="geometry">
            <mxPoint x="-335.5" y="402" as="sourcePoint" />
            <mxPoint x="-92" y="402" as="targetPoint" />
          </mxGeometry>
        </mxCell>
        <mxCell id="XL-E2fBatTasfV7Rm5Hk-30" value="User1 : Voter" style="shape=umlLifeline;perimeter=lifelinePerimeter;whiteSpace=wrap;html=1;container=1;dropTarget=0;collapsible=0;recursiveResize=0;outlineConnect=0;portConstraint=eastwest;newEdgeStyle={&quot;curved&quot;:0,&quot;rounded&quot;:0};" vertex="1" parent="1">
          <mxGeometry x="-385" y="310" width="100" height="370" as="geometry" />
        </mxCell>
        <mxCell id="XL-E2fBatTasfV7Rm5Hk-31" value="Voting System" style="shape=umlLifeline;perimeter=lifelinePerimeter;whiteSpace=wrap;html=1;container=1;dropTarget=0;collapsible=0;recursiveResize=0;outlineConnect=0;portConstraint=eastwest;newEdgeStyle={&quot;curved&quot;:0,&quot;rounded&quot;:0};" vertex="1" parent="1">
          <mxGeometry x="-137" y="310" width="100" height="370" as="geometry" />
        </mxCell>
        <mxCell id="XL-E2fBatTasfV7Rm5Hk-39" value="" style="html=1;points=[[0,0,0,0,5],[0,1,0,0,-5],[1,0,0,0,5],[1,1,0,0,-5]];perimeter=orthogonalPerimeter;outlineConnect=0;targetShapes=umlLifeline;portConstraint=eastwest;newEdgeStyle={&quot;curved&quot;:0,&quot;rounded&quot;:0};" vertex="1" parent="XL-E2fBatTasfV7Rm5Hk-31">
          <mxGeometry x="45" y="81" width="10" height="110" as="geometry" />
        </mxCell>
        <mxCell id="XL-E2fBatTasfV7Rm5Hk-40" value="" style="html=1;points=[[0,0,0,0,5],[0,1,0,0,-5],[1,0,0,0,5],[1,1,0,0,-5]];perimeter=orthogonalPerimeter;outlineConnect=0;targetShapes=umlLifeline;portConstraint=eastwest;newEdgeStyle={&quot;curved&quot;:0,&quot;rounded&quot;:0};" vertex="1" parent="XL-E2fBatTasfV7Rm5Hk-31">
          <mxGeometry x="45" y="271" width="10" height="50" as="geometry" />
        </mxCell>
        <mxCell id="XL-E2fBatTasfV7Rm5Hk-32" value="List of Candidates Displayed()" style="html=1;verticalAlign=bottom;endArrow=open;dashed=1;endSize=8;curved=0;rounded=0;exitX=0;exitY=1;exitDx=0;exitDy=-5;exitPerimeter=0;" edge="1" parent="1" source="XL-E2fBatTasfV7Rm5Hk-19" target="XL-E2fBatTasfV7Rm5Hk-25">
          <mxGeometry relative="1" as="geometry">
            <mxPoint x="-560" y="440" as="sourcePoint" />
            <mxPoint x="-770.5" y="440" as="targetPoint" />
          </mxGeometry>
        </mxCell>
        <mxCell id="XL-E2fBatTasfV7Rm5Hk-33" value="Click on Vote Button()" style="html=1;verticalAlign=bottom;startArrow=oval;startFill=1;endArrow=block;startSize=8;curved=0;rounded=0;entryX=0;entryY=0;entryDx=0;entryDy=5;entryPerimeter=0;" edge="1" parent="1" target="XL-E2fBatTasfV7Rm5Hk-24">
          <mxGeometry width="60" relative="1" as="geometry">
            <mxPoint x="-770.5" y="496" as="sourcePoint" />
            <mxPoint x="-560" y="490" as="targetPoint" />
          </mxGeometry>
        </mxCell>
        <mxCell id="XL-E2fBatTasfV7Rm5Hk-34" value="if already voted, inform voter cannot vote()" style="html=1;verticalAlign=bottom;endArrow=open;dashed=1;endSize=8;curved=0;rounded=0;exitX=0;exitY=1;exitDx=0;exitDy=-5;exitPerimeter=0;" edge="1" parent="1" source="XL-E2fBatTasfV7Rm5Hk-24">
          <mxGeometry relative="1" as="geometry">
            <mxPoint x="-670" y="529" as="sourcePoint" />
            <mxPoint x="-770.5" y="534" as="targetPoint" />
          </mxGeometry>
        </mxCell>
        <mxCell id="XL-E2fBatTasfV7Rm5Hk-35" value="Confirm Vote()" style="html=1;verticalAlign=bottom;endArrow=open;dashed=1;endSize=8;curved=0;rounded=0;" edge="1" parent="1">
          <mxGeometry relative="1" as="geometry">
            <mxPoint x="-555" y="642" as="sourcePoint" />
            <mxPoint x="-770.5" y="642" as="targetPoint" />
          </mxGeometry>
        </mxCell>
        <mxCell id="XL-E2fBatTasfV7Rm5Hk-37" value="Check Validity()" style="html=1;verticalAlign=bottom;endArrow=open;dashed=1;endSize=8;curved=0;rounded=0;" edge="1" parent="1">
          <mxGeometry relative="1" as="geometry">
            <mxPoint x="-335.5" y="449" as="targetPoint" />
            <mxPoint x="-92" y="449" as="sourcePoint" />
            <Array as="points">
              <mxPoint x="-239.5" y="449" />
            </Array>
          </mxGeometry>
        </mxCell>
        <mxCell id="XL-E2fBatTasfV7Rm5Hk-38" value="List of Candidates Displayed()" style="html=1;verticalAlign=bottom;endArrow=open;dashed=1;endSize=8;curved=0;rounded=0;" edge="1" parent="1">
          <mxGeometry relative="1" as="geometry">
            <mxPoint x="-92" y="494" as="sourcePoint" />
            <mxPoint x="-335.5" y="494" as="targetPoint" />
          </mxGeometry>
        </mxCell>
        <mxCell id="XL-E2fBatTasfV7Rm5Hk-41" value="Select Candidate()" style="html=1;verticalAlign=bottom;endArrow=block;curved=0;rounded=0;" edge="1" parent="1">
          <mxGeometry relative="1" as="geometry">
            <mxPoint x="-335.5" y="591" as="sourcePoint" />
            <mxPoint x="-90" y="591" as="targetPoint" />
          </mxGeometry>
        </mxCell>
        <mxCell id="XL-E2fBatTasfV7Rm5Hk-42" value="Candidate&#39;s Information Displayed()" style="html=1;verticalAlign=bottom;endArrow=open;dashed=1;endSize=8;curved=0;rounded=0;" edge="1" parent="1" source="XL-E2fBatTasfV7Rm5Hk-40">
          <mxGeometry relative="1" as="geometry">
            <mxPoint x="-335.5" y="621" as="targetPoint" />
            <mxPoint x="-100" y="621" as="sourcePoint" />
            <Array as="points">
              <mxPoint x="-229.75" y="621" />
            </Array>
          </mxGeometry>
        </mxCell>
      </root>
    </mxGraphModel>
  </diagram>
</mxfile>
